<svg width="161" height="39" viewBox="0 0 161 39" fill="none" xmlns="http://www.w3.org/2000/svg">
<path d="M15.7518 4.01599V4.97599C14.6638 5.00799 13.8318 5.13599 13.2558 5.35999C12.7118 5.55199 12.3438 5.93599 12.1518 6.51199C11.9598 7.05599 11.8638 7.91999 11.8638 9.10399V33.488C11.8638 34.48 11.9278 35.216 12.0558 35.696C12.2158 36.176 12.5038 36.496 12.9198 36.656C13.3678 36.816 14.0238 36.896 14.8878 36.896H17.2398C18.3278 36.896 19.3518 36.64 20.3118 36.128C21.2718 35.616 22.1358 34.896 22.9038 33.968C23.6718 33.008 24.3118 31.872 24.8238 30.56C25.3358 29.248 25.7198 27.792 25.9758 26.192H27.0798C26.9838 27.28 26.9358 28.688 26.9358 30.416C26.9358 31.152 26.9518 32.224 26.9838 33.632C27.0158 35.04 27.1118 36.496 27.2718 38C25.6398 37.936 23.7998 37.904 21.7518 37.904C19.7038 37.872 17.8798 37.856 16.2798 37.856C15.4798 37.856 14.4558 37.856 13.2078 37.856C11.9598 37.856 10.6158 37.872 9.17584 37.904C7.73584 37.904 6.27984 37.92 4.80784 37.952C3.33584 37.952 1.94384 37.968 0.631836 38V37.04C1.65584 36.976 2.42384 36.848 2.93584 36.656C3.44784 36.464 3.78384 36.08 3.94384 35.504C4.13584 34.928 4.23184 34.064 4.23184 32.912V9.10399C4.23184 7.91999 4.13584 7.05599 3.94384 6.51199C3.78384 5.93599 3.43184 5.55199 2.88784 5.35999C2.37584 5.13599 1.62384 5.00799 0.631836 4.97599V4.01599C1.43184 4.04799 2.50384 4.07999 3.84784 4.11199C5.22384 4.14399 6.67984 4.15999 8.21584 4.15999C9.62384 4.15999 10.9998 4.14399 12.3438 4.11199C13.7198 4.07999 14.8558 4.04799 15.7518 4.01599Z" fill="#141414"/>
<path d="M41.8796 12.512C44.2156 12.512 46.2636 12.944 48.0236 13.808C49.7836 14.672 51.1596 16.064 52.1516 17.984C53.1436 19.904 53.6396 22.448 53.6396 25.616C53.6396 28.784 53.1436 31.328 52.1516 33.248C51.1596 35.136 49.7836 36.512 48.0236 37.376C46.2636 38.24 44.2156 38.672 41.8796 38.672C39.6076 38.672 37.5756 38.24 35.7836 37.376C34.0236 36.512 32.6316 35.136 31.6076 33.248C30.6156 31.328 30.1196 28.784 30.1196 25.616C30.1196 22.448 30.6156 19.904 31.6076 17.984C32.6316 16.064 34.0236 14.672 35.7836 13.808C37.5756 12.944 39.6076 12.512 41.8796 12.512ZM41.8796 13.472C40.5996 13.472 39.5276 14.432 38.6636 16.352C37.7996 18.24 37.3676 21.328 37.3676 25.616C37.3676 29.904 37.7996 32.992 38.6636 34.88C39.5276 36.768 40.5996 37.712 41.8796 37.712C43.1916 37.712 44.2636 36.768 45.0956 34.88C45.9596 32.992 46.3916 29.904 46.3916 25.616C46.3916 21.328 45.9596 18.24 45.0956 16.352C44.2636 14.432 43.1916 13.472 41.8796 13.472Z" fill="#141414"/>
<path d="M65.9115 0.463989V16.976C66.7115 15.312 67.7835 14.16 69.1275 13.52C70.5035 12.848 72.0395 12.512 73.7355 12.512C75.1115 12.512 76.2155 12.688 77.0475 13.04C77.8795 13.36 78.5355 13.808 79.0155 14.384C79.5595 14.992 79.9435 15.776 80.1675 16.736C80.4235 17.696 80.5515 18.992 80.5515 20.624V33.536C80.5515 34.88 80.7755 35.792 81.2235 36.272C81.7035 36.752 82.5035 36.992 83.6235 36.992V38C83.0155 37.968 82.0875 37.936 80.8395 37.904C79.6235 37.84 78.4395 37.808 77.2875 37.808C76.0395 37.808 74.8235 37.84 73.6395 37.904C72.4875 37.936 71.6235 37.968 71.0475 38V36.992C72.0075 36.992 72.6795 36.752 73.0635 36.272C73.4475 35.792 73.6395 34.88 73.6395 33.536V18.608C73.6395 17.808 73.5595 17.12 73.3995 16.544C73.2395 15.936 72.9355 15.472 72.4875 15.152C72.0715 14.8 71.4635 14.624 70.6635 14.624C69.7995 14.624 68.9995 14.864 68.2635 15.344C67.5595 15.792 66.9835 16.432 66.5355 17.264C66.1195 18.096 65.9115 19.056 65.9115 20.144V33.536C65.9115 34.88 66.1035 35.792 66.4875 36.272C66.8715 36.752 67.5435 36.992 68.5035 36.992V38C67.9275 37.968 67.0795 37.936 65.9595 37.904C64.8395 37.84 63.7035 37.808 62.5515 37.808C61.3035 37.808 60.0395 37.84 58.7595 37.904C57.5115 37.936 56.5675 37.968 55.9275 38V36.992C57.0475 36.992 57.8315 36.752 58.2795 36.272C58.7595 35.792 58.9995 34.88 58.9995 33.536V6.22399C58.9995 4.78399 58.7755 3.72799 58.3275 3.05599C57.9115 2.35199 57.1115 1.99999 55.9275 1.99999V0.991991C56.9515 1.08799 57.9435 1.13599 58.9035 1.13599C60.2155 1.13599 61.4635 1.08799 62.6475 0.991991C63.8315 0.863991 64.9195 0.68799 65.9115 0.463989Z" fill="#141414"/>
<path d="M101.883 12.512C102.907 12.512 103.739 12.736 104.379 13.184C105.019 13.6 105.483 14.144 105.771 14.816C106.091 15.488 106.251 16.192 106.251 16.928C106.251 18.112 105.899 19.088 105.195 19.856C104.523 20.592 103.627 20.96 102.507 20.96C101.387 20.96 100.507 20.688 99.8666 20.144C99.2586 19.568 98.9546 18.816 98.9546 17.888C98.9546 16.992 99.1466 16.256 99.5306 15.68C99.9466 15.072 100.459 14.56 101.067 14.144C100.619 14.016 100.171 14.032 99.7226 14.192C99.1146 14.288 98.5386 14.544 97.9946 14.96C97.4506 15.344 96.9866 15.84 96.6026 16.448C96.2186 17.024 95.9146 17.664 95.6906 18.368C95.4666 19.04 95.3546 19.696 95.3546 20.336V33.056C95.3546 34.592 95.7226 35.632 96.4586 36.176C97.2266 36.72 98.3626 36.992 99.8666 36.992V38C99.1306 37.968 98.0586 37.936 96.6506 37.904C95.2426 37.84 93.7706 37.808 92.2346 37.808C90.9546 37.808 89.6586 37.84 88.3466 37.904C87.0346 37.936 86.0426 37.968 85.3706 38V36.992C86.4906 36.992 87.2746 36.752 87.7226 36.272C88.2026 35.792 88.4426 34.88 88.4426 33.536V18.416C88.4426 16.976 88.2186 15.92 87.7706 15.248C87.3546 14.544 86.5546 14.192 85.3706 14.192V13.184C86.3946 13.28 87.3866 13.328 88.3466 13.328C89.6906 13.328 90.9386 13.28 92.0906 13.184C93.2746 13.056 94.3626 12.88 95.3546 12.656V17.12C95.7386 16.256 96.2506 15.472 96.8906 14.768C97.5306 14.064 98.2666 13.52 99.0986 13.136C99.9306 12.72 100.859 12.512 101.883 12.512Z" fill="#141414"/>
<path d="M114.401 38.336C112.961 38.336 111.761 38.064 110.801 37.52C109.841 36.976 109.137 36.256 108.689 35.36C108.241 34.432 108.017 33.424 108.017 32.336C108.017 30.96 108.321 29.84 108.929 28.976C109.569 28.112 110.385 27.408 111.377 26.864C112.369 26.32 113.409 25.872 114.497 25.52C115.617 25.168 116.673 24.832 117.665 24.512C118.689 24.16 119.505 23.76 120.113 23.312C120.753 22.832 121.073 22.224 121.073 21.488V17.744C121.073 16.912 120.929 16.176 120.641 15.536C120.385 14.864 119.969 14.352 119.393 14C118.849 13.648 118.129 13.472 117.233 13.472C116.593 13.472 115.953 13.568 115.313 13.76C114.673 13.92 114.145 14.208 113.729 14.624C114.625 14.944 115.313 15.44 115.793 16.112C116.305 16.752 116.561 17.488 116.561 18.32C116.561 19.408 116.177 20.272 115.409 20.912C114.673 21.552 113.793 21.872 112.769 21.872C111.617 21.872 110.737 21.52 110.129 20.816C109.553 20.08 109.265 19.2 109.265 18.176C109.265 17.248 109.489 16.48 109.937 15.872C110.417 15.264 111.073 14.688 111.905 14.144C112.801 13.632 113.873 13.232 115.121 12.944C116.401 12.656 117.777 12.512 119.249 12.512C120.721 12.512 122.049 12.672 123.233 12.992C124.417 13.28 125.409 13.824 126.209 14.624C126.945 15.36 127.425 16.272 127.649 17.36C127.873 18.416 127.985 19.76 127.985 21.392V34.448C127.985 35.248 128.065 35.808 128.225 36.128C128.385 36.416 128.657 36.56 129.041 36.56C129.329 36.56 129.601 36.48 129.857 36.32C130.145 36.16 130.449 35.968 130.769 35.744L131.249 36.56C130.577 37.136 129.793 37.584 128.897 37.904C128.033 38.192 127.057 38.336 125.969 38.336C124.785 38.336 123.841 38.176 123.137 37.856C122.433 37.504 121.921 37.04 121.601 36.464C121.313 35.888 121.169 35.216 121.169 34.448C120.401 35.664 119.473 36.624 118.385 37.328C117.297 38 115.969 38.336 114.401 38.336ZM117.809 35.264C118.449 35.264 119.025 35.12 119.537 34.832C120.081 34.512 120.593 34 121.073 33.296V23.456C120.785 23.936 120.385 24.368 119.873 24.752C119.361 25.136 118.817 25.536 118.241 25.952C117.665 26.336 117.105 26.768 116.561 27.248C116.049 27.728 115.633 28.32 115.313 29.024C114.993 29.728 114.833 30.576 114.833 31.568C114.833 32.816 115.105 33.744 115.649 34.352C116.193 34.96 116.913 35.264 117.809 35.264Z" fill="#141414"/>
<path d="M150.477 12.512C151.821 12.512 152.909 12.688 153.741 13.04C154.605 13.36 155.277 13.808 155.757 14.384C156.269 14.992 156.637 15.776 156.861 16.736C157.117 17.696 157.245 18.992 157.245 20.624V33.536C157.245 34.88 157.469 35.792 157.917 36.272C158.397 36.752 159.197 36.992 160.317 36.992V38C159.709 37.968 158.797 37.936 157.581 37.904C156.365 37.84 155.165 37.808 153.981 37.808C152.765 37.808 151.565 37.84 150.381 37.904C149.229 37.936 148.349 37.968 147.741 38V36.992C148.701 36.992 149.373 36.752 149.757 36.272C150.141 35.792 150.333 34.88 150.333 33.536V18.608C150.333 17.808 150.253 17.12 150.093 16.544C149.933 15.936 149.645 15.472 149.229 15.152C148.813 14.8 148.189 14.624 147.357 14.624C146.493 14.624 145.693 14.864 144.957 15.344C144.253 15.824 143.677 16.496 143.229 17.36C142.813 18.192 142.605 19.136 142.605 20.192V33.536C142.605 34.88 142.797 35.792 143.181 36.272C143.597 36.752 144.269 36.992 145.197 36.992V38C144.621 37.968 143.773 37.936 142.653 37.904C141.565 37.84 140.429 37.808 139.245 37.808C138.029 37.808 136.781 37.84 135.501 37.904C134.221 37.936 133.261 37.968 132.621 38V36.992C133.741 36.992 134.525 36.752 134.973 36.272C135.453 35.792 135.693 34.88 135.693 33.536V18.416C135.693 16.976 135.469 15.92 135.021 15.248C134.605 14.544 133.805 14.192 132.621 14.192V13.184C133.645 13.28 134.637 13.328 135.597 13.328C136.941 13.328 138.189 13.28 139.341 13.184C140.525 13.056 141.613 12.88 142.605 12.656V16.976C143.405 15.344 144.493 14.192 145.869 13.52C147.245 12.848 148.781 12.512 150.477 12.512Z" fill="#141414"/>
</svg>
