<svg width="145" height="38" viewBox="0 0 145 38" fill="none" xmlns="http://www.w3.org/2000/svg">
<path d="M7.992 3.73603V30.76H20.952L20.136 37H0.119995V3.73603H7.992Z" fill="black"/>
<path d="M34.4066 10.696C38.3106 10.696 41.3666 11.896 43.5746 14.296C45.7826 16.664 46.8866 19.992 46.8866 24.28C46.8866 27 46.3746 29.384 45.3506 31.432C44.3586 33.448 42.9186 35.016 41.0306 36.136C39.1746 37.256 36.9666 37.816 34.4066 37.816C30.5346 37.816 27.4786 36.632 25.2386 34.264C23.0306 31.864 21.9266 28.52 21.9266 24.232C21.9266 21.512 22.4226 19.144 23.4146 17.128C24.4386 15.08 25.8786 13.496 27.7346 12.376C29.6226 11.256 31.8466 10.696 34.4066 10.696ZM34.4066 16.264C32.8706 16.264 31.7186 16.92 30.9506 18.232C30.1826 19.512 29.7986 21.512 29.7986 24.232C29.7986 27.016 30.1666 29.048 30.9026 30.328C31.6706 31.608 32.8386 32.248 34.4066 32.248C35.9426 32.248 37.0946 31.608 37.8626 30.328C38.6306 29.016 39.0146 27 39.0146 24.28C39.0146 21.496 38.6306 19.464 37.8626 18.184C37.1266 16.904 35.9746 16.264 34.4066 16.264Z" fill="black"/>
<path d="M66.3259 10.696C68.5339 10.696 70.2619 11.368 71.5099 12.712C72.7579 14.056 73.3819 15.944 73.3819 18.376V37H65.7979V19.672C65.7979 18.392 65.5899 17.512 65.1739 17.032C64.7579 16.52 64.1659 16.264 63.3979 16.264C61.8619 16.264 60.3899 17.352 58.9819 19.528V37H51.3979V1.38403L58.9819 0.616028V14.248C60.0379 13.064 61.1579 12.184 62.3419 11.608C63.5259 11 64.8539 10.696 66.3259 10.696Z" fill="black"/>
<path d="M92.925 10.792C93.853 10.792 94.701 10.904 95.469 11.128L94.269 18.472C93.309 18.248 92.541 18.136 91.965 18.136C90.461 18.136 89.309 18.664 88.509 19.72C87.741 20.744 87.133 22.296 86.685 24.376V37H79.101V11.512H85.725L86.349 16.456C86.925 14.696 87.789 13.32 88.941 12.328C90.125 11.304 91.453 10.792 92.925 10.792Z" fill="black"/>
<path d="M116.935 29.608C116.935 30.568 117.063 31.272 117.319 31.72C117.607 32.168 118.055 32.504 118.663 32.728L117.079 37.672C115.511 37.544 114.231 37.208 113.239 36.664C112.247 36.088 111.479 35.192 110.935 33.976C109.271 36.536 106.711 37.816 103.255 37.816C100.727 37.816 98.7111 37.08 97.2071 35.608C95.7031 34.136 94.9511 32.216 94.9511 29.848C94.9511 27.064 95.9751 24.936 98.0231 23.464C100.071 21.992 103.031 21.256 106.903 21.256H109.495V20.152C109.495 18.648 109.175 17.624 108.535 17.08C107.895 16.504 106.775 16.216 105.175 16.216C104.343 16.216 103.335 16.344 102.151 16.6C100.967 16.824 99.7511 17.144 98.5031 17.56L96.7751 12.568C98.3751 11.96 100.007 11.496 101.671 11.176C103.367 10.856 104.935 10.696 106.375 10.696C110.023 10.696 112.695 11.448 114.391 12.952C116.087 14.456 116.935 16.712 116.935 19.72V29.608ZM105.463 32.392C107.191 32.392 108.535 31.576 109.495 29.944V25.432H107.623C105.895 25.432 104.599 25.736 103.735 26.344C102.903 26.952 102.487 27.896 102.487 29.176C102.487 30.2 102.743 31 103.255 31.576C103.799 32.12 104.535 32.392 105.463 32.392Z" fill="black"/>
<path d="M137.904 10.696C140.112 10.696 141.84 11.368 143.088 12.712C144.336 14.056 144.96 15.944 144.96 18.376V37H137.376V19.672C137.376 18.392 137.168 17.512 136.752 17.032C136.368 16.52 135.776 16.264 134.976 16.264C133.44 16.264 131.968 17.368 130.56 19.576V37H122.976V11.512H129.6L130.128 14.536C131.216 13.256 132.384 12.296 133.632 11.656C134.912 11.016 136.336 10.696 137.904 10.696Z" fill="black"/>
</svg>
